<?xml version="1.0" encoding="UTF-8" standalone="no"?>
<!DOCTYPE svg PUBLIC "-//W3C//DTD SVG 1.1//EN"
 "http://www.w3.org/Graphics/SVG/1.1/DTD/svg11.dtd">
<!-- Generated by graphviz version 2.43.0 (0)
 -->
<!-- Pages: 1 -->
<svg width="832pt" height="264pt"
 viewBox="0.00 0.00 832.18 264.00" xmlns="http://www.w3.org/2000/svg" xmlns:xlink="http://www.w3.org/1999/xlink">
<g id="graph0" class="graph" transform="scale(1 1) rotate(0) translate(4 260)">
<polygon fill="white" stroke="transparent" points="-4,4 -4,-260 828.18,-260 828.18,4 -4,4"/>
<!-- 172.18.0.6 -->
<g id="node1" class="node">
<title>172.18.0.6</title>
<polygon fill="none" stroke="yellow" points="7.53,-0.5 7.53,-36.5 587.53,-36.5 587.53,-0.5 7.53,-0.5"/>
<text text-anchor="middle" x="54.03" y="-14.8" font-family="Times,serif" font-size="14.00">172.18.0.6</text>
<polyline fill="none" stroke="yellow" points="100.53,-0.5 100.53,-36.5 "/>
<text text-anchor="middle" x="344.03" y="-14.8" font-family="Times,serif" font-size="14.00">BLJE6HrAdNq1PGXFxuq4zZQaNbJCFaHYH3YGPoVYAyi3o9h6hqS</text>
</g>
<!-- 172.18.0.8 -->
<g id="node2" class="node">
<title>172.18.0.8</title>
<polygon fill="none" stroke="yellow" points="222.53,-146.5 222.53,-182.5 802.53,-182.5 802.53,-146.5 222.53,-146.5"/>
<text text-anchor="middle" x="269.03" y="-160.8" font-family="Times,serif" font-size="14.00">172.18.0.8</text>
<polyline fill="none" stroke="yellow" points="315.53,-146.5 315.53,-182.5 "/>
<text text-anchor="middle" x="559.03" y="-160.8" font-family="Times,serif" font-size="14.00">BLJE6HrAdNq1PGXFxuq4zZQaNbJCFaHYH3YGPoVYAyi3o9h6hqS</text>
</g>
<!-- 172.18.0.8&#45;&gt;172.18.0.6 -->
<g id="edge1" class="edge">
<title>172.18.0.8&#45;&gt;172.18.0.6</title>
<path fill="none" stroke="black" d="M563.17,-146.32C579.65,-138.05 596.11,-126.29 605.53,-110 613.76,-95.77 616.12,-85.58 605.53,-73 592.37,-57.35 560.26,-46.28 521.5,-38.45"/>
<polygon fill="black" stroke="black" points="522,-34.98 511.52,-36.52 520.67,-41.85 522,-34.98"/>
</g>
<!-- 172.18.0.3 -->
<g id="node3" class="node">
<title>172.18.0.3</title>
<polygon fill="none" stroke="yellow" points="16.53,-73.5 16.53,-109.5 596.53,-109.5 596.53,-73.5 16.53,-73.5"/>
<text text-anchor="middle" x="63.03" y="-87.8" font-family="Times,serif" font-size="14.00">172.18.0.3</text>
<polyline fill="none" stroke="yellow" points="109.53,-73.5 109.53,-109.5 "/>
<text text-anchor="middle" x="353.03" y="-87.8" font-family="Times,serif" font-size="14.00">BLJE6HrAdNq1PGXFxuq4zZQaNbJCFaHYH3YGPoVYAyi3o9h6hqS</text>
</g>
<!-- 172.18.0.8&#45;&gt;172.18.0.3 -->
<g id="edge2" class="edge">
<title>172.18.0.8&#45;&gt;172.18.0.3</title>
<path fill="none" stroke="black" d="M463.19,-146.49C433.97,-136.42 396.77,-123.6 365.95,-112.98"/>
<polygon fill="black" stroke="black" points="366.78,-109.56 356.18,-109.61 364.5,-116.18 366.78,-109.56"/>
</g>
<!-- 10.111.128.107 -->
<g id="node4" class="node">
<title>10.111.128.107</title>
<ellipse fill="none" stroke="black" cx="689.53" cy="-18.5" rx="83.69" ry="18"/>
<text text-anchor="middle" x="689.53" y="-14.8" font-family="Times,serif" font-size="14.00">10.111.128.107</text>
</g>
<!-- 172.18.0.8&#45;&gt;10.111.128.107 -->
<g id="edge3" class="edge">
<title>172.18.0.8&#45;&gt;10.111.128.107</title>
<path fill="none" stroke="black" d="M574.2,-146.5C596.32,-138.16 620.28,-126.32 638.53,-110 657.97,-92.62 671.72,-66.01 680,-46.13"/>
<polygon fill="black" stroke="black" points="683.31,-47.3 683.74,-36.71 676.8,-44.72 683.31,-47.3"/>
</g>
<!-- 172.18.0.3&#45;&gt;172.18.0.6 -->
<g id="edge4" class="edge">
<title>172.18.0.3&#45;&gt;172.18.0.6</title>
<path fill="none" stroke="black" d="M304.35,-73.31C303.34,-65.29 302.1,-55.55 300.96,-46.57"/>
<polygon fill="black" stroke="black" points="304.42,-46.01 299.69,-36.53 297.47,-46.89 304.42,-46.01"/>
</g>
<!-- 172.18.0.3&#45;&gt;10.111.128.107 -->
<g id="edge5" class="edge">
<title>172.18.0.3&#45;&gt;10.111.128.107</title>
<path fill="none" stroke="black" d="M399.28,-73.48C456.2,-63.01 530.6,-49.29 596.53,-37 603.64,-35.68 611.05,-34.29 618.45,-32.9"/>
<polygon fill="black" stroke="black" points="619.32,-36.3 628.51,-31.02 618.03,-29.42 619.32,-36.3"/>
</g>
<!-- 172.18.0.7 -->
<g id="node5" class="node">
<title>172.18.0.7</title>
<polygon fill="none" stroke="yellow" points="63.53,-219.5 63.53,-255.5 643.53,-255.5 643.53,-219.5 63.53,-219.5"/>
<text text-anchor="middle" x="110.03" y="-233.8" font-family="Times,serif" font-size="14.00">172.18.0.7</text>
<polyline fill="none" stroke="yellow" points="156.53,-219.5 156.53,-255.5 "/>
<text text-anchor="middle" x="400.03" y="-233.8" font-family="Times,serif" font-size="14.00">BLJE6HrAdNq1PGXFxuq4zZQaNbJCFaHYH3YGPoVYAyi3o9h6hqS</text>
</g>
<!-- 172.18.0.7&#45;&gt;172.18.0.6 -->
<g id="edge6" class="edge">
<title>172.18.0.7&#45;&gt;172.18.0.6</title>
<path fill="none" stroke="black" d="M195.55,-219.4C125.78,-203.07 50.08,-171.36 7.53,-110 -1.84,-96.49 -2.99,-85.64 7.53,-73 20.51,-57.4 53.27,-46.33 92.31,-38.49"/>
<polygon fill="black" stroke="black" points="93.2,-41.88 102.36,-36.56 91.88,-35 93.2,-41.88"/>
</g>
<!-- 172.18.0.7&#45;&gt;172.18.0.8 -->
<g id="edge7" class="edge">
<title>172.18.0.7&#45;&gt;172.18.0.8</title>
<path fill="none" stroke="black" d="M391.62,-219.49C413.58,-209.69 441.39,-197.27 464.81,-186.81"/>
<polygon fill="black" stroke="black" points="466.5,-189.89 474.21,-182.61 463.65,-183.5 466.5,-189.89"/>
</g>
<!-- 172.18.0.7&#45;&gt;172.18.0.3 -->
<g id="edge8" class="edge">
<title>172.18.0.7&#45;&gt;172.18.0.3</title>
<path fill="none" stroke="black" d="M262.01,-219.42C242.98,-211.51 225.19,-199.93 213.53,-183 204.21,-169.45 205.3,-160.23 213.53,-146 221.26,-132.64 233.72,-122.33 247.05,-114.48"/>
<polygon fill="black" stroke="black" points="248.78,-117.53 255.9,-109.68 245.44,-111.38 248.78,-117.53"/>
</g>
<!-- 172.18.0.7&#45;&gt;10.111.128.107 -->
<g id="edge9" class="edge">
<title>172.18.0.7&#45;&gt;10.111.128.107</title>
<path fill="none" stroke="black" d="M623.91,-219.48C714.95,-210.97 797.29,-199 811.53,-183 854.18,-135.08 775.41,-73.12 725.68,-40.98"/>
<polygon fill="black" stroke="black" points="727.39,-37.92 717.07,-35.52 723.64,-43.83 727.39,-37.92"/>
</g>
</g>
</svg>
