<?xml version="1.0" encoding="UTF-8" standalone="no"?>
<!DOCTYPE svg PUBLIC "-//W3C//DTD SVG 1.1//EN"
 "http://www.w3.org/Graphics/SVG/1.1/DTD/svg11.dtd">
<!-- Generated by graphviz version 2.43.0 (0)
 -->
<!-- Pages: 1 -->
<svg width="261pt" height="332pt"
 viewBox="0.00 0.00 260.89 332.00" xmlns="http://www.w3.org/2000/svg" xmlns:xlink="http://www.w3.org/1999/xlink">
<g id="graph0" class="graph" transform="scale(1 1) rotate(0) translate(4 328)">
<polygon fill="white" stroke="transparent" points="-4,4 -4,-328 256.89,-328 256.89,4 -4,4"/>
<!-- 172.18.0.3 -->
<g id="node1" class="node">
<title>172.18.0.3</title>
<ellipse fill="none" stroke="red" cx="60.44" cy="-162" rx="60.39" ry="18"/>
<text text-anchor="middle" x="60.44" y="-158.3" font-family="Times,serif" font-size="14.00">172.18.0.3</text>
</g>
<!-- 10.111.128.107 -->
<g id="node2" class="node">
<title>10.111.128.107</title>
<ellipse fill="none" stroke="black" cx="154.44" cy="-18" rx="83.69" ry="18"/>
<text text-anchor="middle" x="154.44" y="-14.3" font-family="Times,serif" font-size="14.00">10.111.128.107</text>
</g>
<!-- 172.18.0.3&#45;&gt;10.111.128.107 -->
<g id="edge1" class="edge">
<title>172.18.0.3&#45;&gt;10.111.128.107</title>
<path fill="none" stroke="black" d="M49.83,-143.94C39.54,-124.99 27.38,-94.14 41.44,-72 52.38,-54.79 70.55,-43.07 89.15,-35.13"/>
<polygon fill="black" stroke="black" points="90.55,-38.34 98.58,-31.42 87.99,-31.83 90.55,-38.34"/>
</g>
<!-- 172.18.0.6 -->
<g id="node3" class="node">
<title>172.18.0.6</title>
<ellipse fill="none" stroke="orange" cx="110.44" cy="-90" rx="60.39" ry="18"/>
<text text-anchor="middle" x="110.44" y="-86.3" font-family="Times,serif" font-size="14.00">172.18.0.6</text>
</g>
<!-- 172.18.0.3&#45;&gt;172.18.0.6 -->
<g id="edge2" class="edge">
<title>172.18.0.3&#45;&gt;172.18.0.6</title>
<path fill="none" stroke="black" d="M72.55,-144.05C78.57,-135.63 85.96,-125.28 92.61,-115.97"/>
<polygon fill="black" stroke="black" points="95.49,-117.96 98.45,-107.79 89.79,-113.89 95.49,-117.96"/>
</g>
<!-- 172.18.0.6&#45;&gt;10.111.128.107 -->
<g id="edge10" class="edge">
<title>172.18.0.6&#45;&gt;10.111.128.107</title>
<path fill="none" stroke="black" d="M121.1,-72.05C126.21,-63.92 132.45,-54 138.14,-44.94"/>
<polygon fill="black" stroke="black" points="141.23,-46.6 143.59,-36.28 135.3,-42.88 141.23,-46.6"/>
</g>
<!-- 172.18.0.8 -->
<g id="node4" class="node">
<title>172.18.0.8</title>
<ellipse fill="none" stroke="red" cx="148.44" cy="-234" rx="60.39" ry="18"/>
<text text-anchor="middle" x="148.44" y="-230.3" font-family="Times,serif" font-size="14.00">172.18.0.8</text>
</g>
<!-- 172.18.0.8&#45;&gt;172.18.0.3 -->
<g id="edge3" class="edge">
<title>172.18.0.8&#45;&gt;172.18.0.3</title>
<path fill="none" stroke="black" d="M128.03,-216.76C116.37,-207.49 101.57,-195.71 88.79,-185.55"/>
<polygon fill="black" stroke="black" points="90.75,-182.63 80.74,-179.15 86.39,-188.11 90.75,-182.63"/>
</g>
<!-- 172.18.0.8&#45;&gt;10.111.128.107 -->
<g id="edge4" class="edge">
<title>172.18.0.8&#45;&gt;10.111.128.107</title>
<path fill="none" stroke="black" d="M156.32,-216.01C168.94,-186.57 191.14,-124.22 179.44,-72 177.38,-62.77 173.51,-53.25 169.43,-44.87"/>
<polygon fill="black" stroke="black" points="172.52,-43.23 164.81,-35.97 166.31,-46.46 172.52,-43.23"/>
</g>
<!-- 172.18.0.8&#45;&gt;172.18.0.6 -->
<g id="edge5" class="edge">
<title>172.18.0.8&#45;&gt;172.18.0.6</title>
<path fill="none" stroke="black" d="M145.47,-215.77C142.2,-197.72 136.45,-168.62 129.44,-144 126.97,-135.31 123.81,-125.99 120.77,-117.62"/>
<polygon fill="black" stroke="black" points="123.96,-116.15 117.19,-108 117.4,-118.59 123.96,-116.15"/>
</g>
<!-- 172.18.0.7 -->
<g id="node5" class="node">
<title>172.18.0.7</title>
<ellipse fill="none" stroke="red" cx="192.44" cy="-306" rx="60.39" ry="18"/>
<text text-anchor="middle" x="192.44" y="-302.3" font-family="Times,serif" font-size="14.00">172.18.0.7</text>
</g>
<!-- 172.18.0.7&#45;&gt;172.18.0.3 -->
<g id="edge6" class="edge">
<title>172.18.0.7&#45;&gt;172.18.0.3</title>
<path fill="none" stroke="black" d="M146.91,-294.13C123.41,-286.24 96.22,-273.12 79.44,-252 65.66,-234.65 61.28,-209.6 60.13,-190.49"/>
<polygon fill="black" stroke="black" points="63.62,-190.18 59.79,-180.3 56.63,-190.41 63.62,-190.18"/>
</g>
<!-- 172.18.0.7&#45;&gt;10.111.128.107 -->
<g id="edge8" class="edge">
<title>172.18.0.7&#45;&gt;10.111.128.107</title>
<path fill="none" stroke="black" d="M209.34,-288.53C218.07,-278.83 227.83,-265.77 232.44,-252 237.53,-236.83 234.5,-231.87 232.44,-216 223.93,-150.36 223.37,-131.54 194.44,-72 189.68,-62.2 182.99,-52.41 176.43,-43.97"/>
<polygon fill="black" stroke="black" points="179.01,-41.59 170,-36.01 173.57,-45.99 179.01,-41.59"/>
</g>
<!-- 172.18.0.7&#45;&gt;172.18.0.6 -->
<g id="edge9" class="edge">
<title>172.18.0.7&#45;&gt;172.18.0.6</title>
<path fill="none" stroke="black" d="M203.54,-288.01C213.9,-269.91 226.51,-240.54 217.44,-216 201.92,-173.99 165.28,-136.55 139.21,-113.84"/>
<polygon fill="black" stroke="black" points="141.38,-111.09 131.49,-107.28 136.84,-116.43 141.38,-111.09"/>
</g>
<!-- 172.18.0.7&#45;&gt;172.18.0.8 -->
<g id="edge7" class="edge">
<title>172.18.0.7&#45;&gt;172.18.0.8</title>
<path fill="none" stroke="black" d="M181.79,-288.05C176.61,-279.8 170.26,-269.7 164.5,-260.54"/>
<polygon fill="black" stroke="black" points="167.28,-258.39 159,-251.79 161.36,-262.12 167.28,-258.39"/>
</g>
</g>
</svg>
